M48
; DRILL file {KiCad 9.0.4} date 2025-10-15T20:25:43+0200
; FORMAT={-:-/ absolute / inch / decimal}
; #@! TF.CreationDate,2025-10-15T20:25:43+02:00
; #@! TF.GenerationSoftware,Kicad,Pcbnew,9.0.4
; #@! TF.FileFunction,Plated,1,6,PTH
FMAT,2
INCH
; #@! TA.AperFunction,Plated,PTH,ViaDrill
T1C0.0079
; #@! TA.AperFunction,Plated,PTH,ComponentDrill
T2C0.0079
; #@! TA.AperFunction,Plated,PTH,ViaDrill
T3C0.0118
; #@! TA.AperFunction,Plated,PTH,ComponentDrill
T4C0.0236
; #@! TA.AperFunction,Plated,PTH,ComponentDrill
T5C0.0394
%
G90
G05
T1
X2.4402Y-1.8777
X2.6455Y-4.2533
X2.6455Y-4.3301
X2.6455Y-4.4068
X2.6515Y-4.1667
X2.6561Y-4.5946
X2.6626Y-4.521
X2.665Y-3.935
X2.6651Y-4.1213
X2.6693Y-4.4891
X2.6711Y-4.2661
X2.6711Y-4.2917
X2.6821Y-2.6147
X2.687Y-4.452
X2.7016Y-4.394
X2.7016Y-4.4246
X2.721Y-5.4543
X2.7272Y-4.2149
X2.7272Y-4.3429
X2.7272Y-4.394
X2.7272Y-4.2661
X2.7272Y-4.3173
X2.7272Y-4.3684
X2.7272Y-4.2917
X2.7272Y-4.2405
X2.729Y-3.9344
X2.7736Y-4.1667
X2.7736Y-4.4423
X2.7833Y-4.3557
X2.7833Y-4.4068
X2.8378Y-3.8221
X2.8703Y-3.8221
X2.8703Y-4.4711
X2.9028Y-3.8221
X2.9053Y-4.4711
X2.9178Y-5.4661
X2.9384Y-4.7592
X2.9403Y-4.4711
X2.9753Y-4.4711
X2.9787Y-3.3866
X3.0138Y-4.3556
X3.1083Y-4.3997
X3.1188Y-4.4259
X3.1195Y-4.1332
X3.1291Y-4.1599
X3.1298Y-4.4501
X3.1557Y-4.1695
X3.1654Y-4.1961
X3.1775Y-4.0084
X3.1903Y-4.2045
X3.2041Y-4.0205
X3.2308Y-4.0084
X3.2574Y-4.0205
X3.2821Y-4.0084
X3.3865Y-5.6326
X3.5525Y-4.8632
X3.5848Y-5.6471
X3.6085Y-2.7689
X3.72Y-3.4579
X3.8316Y-4.1468
X4.052Y-5.811
X4.2258Y-5.9271
X4.2388Y-4.9233
X4.2975Y-2.7689
X4.409Y-3.4579
X4.5206Y-4.1468
X4.9252Y-4.9833
X4.9864Y-2.7689
X5.098Y-3.4579
X5.2095Y-4.1468
X8.377Y-4.5352
X8.5008Y-3.4904
X8.5211Y-4.1542
X8.532Y-4.1992
X8.5346Y-3.8483
X8.55Y-4.2192
X8.567Y-4.239
X8.6581Y-4.1814
X8.6898Y-4.2006
X8.6898Y-4.2518
X8.6995Y-4.1652
X8.6995Y-4.4408
X8.7459Y-4.2134
X8.7459Y-4.2902
X8.7459Y-4.3414
X8.7459Y-4.239
X8.7459Y-4.2646
X8.7459Y-4.3158
X8.7459Y-4.367
X8.7459Y-4.3926
X8.7715Y-4.1829
X8.7715Y-4.2134
X8.7862Y-4.1555
X8.802Y-4.3414
X8.802Y-4.3158
X8.8038Y-4.1183
X8.808Y-4.6724
X8.808Y-4.4862
X8.8104Y-4.0864
X8.8216Y-4.4408
X8.8276Y-4.3542
X8.8276Y-4.2006
X8.8276Y-4.2774
T2
X3.3172Y-2.1477
X3.3172Y-2.1871
X3.3172Y-2.2264
X3.3565Y-2.1477
X3.3565Y-2.1871
X3.3565Y-2.2264
X3.3959Y-2.1477
X3.3959Y-2.1871
X3.3959Y-2.2264
X8.0777Y-2.1455
X8.0777Y-2.1849
X8.0777Y-2.2242
X8.1171Y-2.1455
X8.1171Y-2.1849
X8.1171Y-2.2242
X8.1564Y-2.1455
X8.1564Y-2.1849
X8.1564Y-2.2242
T3
X3.0051Y-1.9323
X3.1197Y-1.9805
X3.1958Y-2.164
X3.2054Y-2.2016
X3.2267Y-2.0947
X3.2389Y-1.9581
X3.2689Y-1.8946
X3.2767Y-2.0589
X3.2821Y-2.5824
X3.3159Y-2.3868
X3.3275Y-2.3188
X3.3354Y-2.0566
X3.3447Y-1.9496
X3.3754Y-2.3556
X3.4561Y-2.097
X3.4821Y-2.1053
X3.4927Y-2.0145
X3.5059Y-2.0927
X3.5352Y-2.0954
X3.5374Y-2.3645
X3.5521Y-2.0048
X3.5584Y-2.2686
X3.5604Y-2.2206
X3.5614Y-2.3637
X3.5844Y-2.1746
X3.5927Y-2.0407
X3.6252Y-2.0698
X3.6361Y-2.0333
X3.6597Y-2.0678
X3.6695Y-2.134
X3.6851Y-2.1061
X3.6901Y-2.1872
X3.6944Y-2.0396
X3.7411Y-2.0048
X3.8025Y-2.0205
X6.2653Y-4.2676
X6.3768Y-3.5786
X6.4884Y-2.8897
X6.5603Y-5.1036
X6.9543Y-4.2676
X7.0658Y-3.5786
X7.1774Y-2.8897
X7.242Y-5.9102
X7.2466Y-5.0436
X7.4544Y-5.9276
X7.6432Y-4.2676
X7.7045Y-2.0482
X7.7324Y-2.1398
X7.7344Y-2.0035
X7.7548Y-3.5786
X7.7597Y-2.0513
X7.7974Y-2.0916
X7.8191Y-2.032
X7.8427Y-2.0665
X7.8663Y-2.8897
X7.8734Y-2.3585
X7.9066Y-2.2693
X7.912Y-5.7302
X7.9177Y-2.4352
X7.9234Y-2.0035
X7.9274Y-2.2485
X7.9294Y-2.195
X7.933Y-4.9835
X7.9545Y-2.2854
X7.9675Y-2.1608
X7.9786Y-2.0324
X7.9821Y-2.0852
X7.9824Y-2.116
X7.9827Y-2.4556
X8.0168Y-2.0113
X8.0184Y-2.2885
X8.0809Y-2.3425
X8.0924Y-1.9615
X8.1035Y-2.0349
X8.1054Y-1.8024
X8.1094Y-2.411
X8.1199Y-5.7493
X8.1215Y-2.3438
X8.1594Y-1.9185
X8.1916Y-1.9671
X8.206Y-1.8975
X8.2105Y-2.0821
X8.2483Y-2.2115
X8.2494Y-2.2997
X8.2634Y-2.0245
X8.2856Y-2.166
X8.577Y-5.5502
X8.6997Y-3.4999
X8.7674Y-2.7329
X8.7854Y-5.571
X8.983Y-1.9871
T5
X4.0668Y-1.8939
X4.0668Y-1.9939
X4.0668Y-2.0939
X4.0668Y-2.1939
X4.0668Y-2.2939
X7.408Y-1.8947
X7.408Y-1.9947
X7.408Y-2.0947
X7.408Y-2.1947
X7.408Y-2.2947
T4
G00X3.4264Y-1.7922
M15
G01X3.4264Y-1.8394
M16
G05
G00X3.4264Y-1.9536
M15
G01X3.4264Y-1.9851
M16
G05
G00X3.8654Y-1.7922
M15
G01X3.8654Y-1.8394
M16
G05
G00X3.8654Y-1.9556
M15
G01X3.8654Y-1.9831
M16
G05
G00X7.6094Y-1.7909
M15
G01X7.6094Y-1.8381
M16
G05
G00X7.6094Y-1.9523
M15
G01X7.6094Y-1.9838
M16
G05
G00X8.0484Y-1.7909
M15
G01X8.0484Y-1.8381
M16
G05
G00X8.0484Y-1.9543
M15
G01X8.0484Y-1.9818
M16
G05
M30
