%TF.GenerationSoftware,KiCad,Pcbnew,9.0.4*%
%TF.CreationDate,2025-10-15T20:25:43+02:00*%
%TF.ProjectId,wafer_keyboard_v3_production,77616665-725f-46b6-9579-626f6172645f,rev?*%
%TF.SameCoordinates,Original*%
%TF.FileFunction,Profile,NP*%
%FSLAX46Y46*%
G04 Gerber Fmt 4.6, Leading zero omitted, Abs format (unit mm)*
G04 Created by KiCad (PCBNEW 9.0.4) date 2025-10-15 20:25:43*
%MOMM*%
%LPD*%
G01*
G04 APERTURE LIST*
%TA.AperFunction,Profile*%
%ADD10C,0.150000*%
%TD*%
%TA.AperFunction,Profile*%
%ADD11C,0.100000*%
%TD*%
G04 APERTURE END LIST*
D10*
X139505457Y-67086212D02*
X139505457Y-62331943D01*
X139505446Y-77840483D02*
X139505446Y-73086212D01*
X151954815Y-77800954D02*
X151954815Y-73086247D01*
X151954796Y-139437527D02*
X151954796Y-152922643D01*
X151954816Y-119910099D02*
X151954816Y-133437527D01*
X139505444Y-139445876D02*
X139505444Y-152962325D01*
X139505444Y-119929539D02*
X139505444Y-133445876D01*
X75588906Y-43879463D02*
G75*
G02*
X73770737Y-42712688I-29J1999956D01*
G01*
X145172112Y-98369272D02*
X145172112Y-115601040D01*
X105505446Y-61331960D02*
X105505445Y-43882150D01*
X60202162Y-130302064D02*
G75*
G02*
X61801271Y-102980148I234206717J1D01*
G01*
X62202111Y-154964020D02*
G75*
G02*
X60202162Y-152964140I-172J1999777D01*
G01*
X53275858Y-42210121D02*
X68147720Y-35275266D01*
X113859167Y-156426288D02*
G75*
G02*
X115792713Y-154943992I1931812J-517675D01*
G01*
X97119456Y-43879464D02*
X105505445Y-43881864D01*
X140331660Y-78825267D02*
G75*
G02*
X139505446Y-77840483I173802J984797D01*
G01*
X97119456Y-50417663D02*
X88081121Y-50417663D01*
X88081121Y-50417663D02*
X88081121Y-43879464D01*
X145172112Y-115601040D02*
G75*
G02*
X143834770Y-117488046I-1999933J-23D01*
G01*
X84626843Y-154957754D02*
G75*
G02*
X85145037Y-155025907I536J-2000009D01*
G01*
X143834761Y-117488021D02*
X141158148Y-117959981D01*
X138505458Y-61331943D02*
G75*
G02*
X139505458Y-62331943I28J-999972D01*
G01*
X113859167Y-156426288D02*
X112807053Y-160352828D01*
X75588906Y-43879463D02*
X88081121Y-43879464D01*
X143164996Y-96325266D02*
G75*
G02*
X142338796Y-95340483I173743J984733D01*
G01*
X140686350Y-78887859D02*
G75*
G02*
X142338732Y-80857463I-347856J-1969758D01*
G01*
X97119456Y-43879464D02*
X97119456Y-50417663D01*
X139505444Y-119929539D02*
G75*
G02*
X141158152Y-117960001I1999935J-24D01*
G01*
X84626843Y-154957754D02*
X62202111Y-154964020D01*
X137498293Y-154962320D02*
X115792713Y-154943927D01*
X139505446Y-152962325D02*
G75*
G02*
X137498293Y-154962318I-2000167J162D01*
G01*
X110386848Y-161789426D02*
X85145039Y-155025901D01*
X140331660Y-78825267D02*
X140686350Y-78887859D01*
X70813959Y-36260746D02*
X73770737Y-42712688D01*
X142338779Y-80857464D02*
X142338777Y-95340482D01*
X112807053Y-160352828D02*
G75*
G02*
X110386848Y-161789424I-1939774J510965D01*
G01*
X60555777Y-66887566D02*
G75*
G02*
X61807567Y-102980888I-117508833J-22143814D01*
G01*
X52299072Y-44847373D02*
G75*
G02*
X53275916Y-42210122I1821816J824733D01*
G01*
X55968771Y-52970648D02*
X52299072Y-44847373D01*
X143164991Y-96325266D02*
X143519683Y-96387858D01*
X68147763Y-35275266D02*
G75*
G02*
X70813959Y-36260746I845175J-1812805D01*
G01*
X105505458Y-61331945D02*
X138505458Y-61331943D01*
X143519683Y-96387858D02*
G75*
G02*
X145172110Y-98369272I-347624J-1969645D01*
G01*
X60202157Y-152964138D02*
X60202157Y-130302063D01*
X60555777Y-66887566D02*
X60555733Y-66902297D01*
X55968773Y-52970649D02*
G75*
G02*
X60555733Y-66902297I-50247412J-24264780D01*
G01*
X146288151Y-98317895D02*
X146288151Y-115561459D01*
X229652740Y-102941240D02*
G75*
G02*
X230904531Y-66847918I118760229J13949518D01*
G01*
X185954816Y-61292415D02*
X152954816Y-61292415D01*
X203379141Y-50378135D02*
X203379141Y-43839936D01*
X220649095Y-36215128D02*
X217689525Y-42673161D01*
X149121484Y-80817896D02*
G75*
G02*
X150773913Y-78848331I2000014J-14D01*
G01*
X148295271Y-96285738D02*
X147940581Y-96348329D01*
X229659041Y-102940501D02*
G75*
G02*
X231258146Y-130262416I-232607600J-27321879D01*
G01*
X149121484Y-80817896D02*
X149121485Y-95300955D01*
X151128602Y-78785738D02*
X150773913Y-78848331D01*
X177601097Y-156386759D02*
X178653210Y-160313300D01*
X150302192Y-117920467D02*
G75*
G02*
X151954816Y-119905859I-347338J-1969633D01*
G01*
X175667551Y-154904398D02*
G75*
G02*
X177601097Y-156386759I1609J-2000111D01*
G01*
X147625501Y-117448493D02*
X150302192Y-117920467D01*
X151954816Y-62292415D02*
G75*
G02*
X152954816Y-61292415I999999J1D01*
G01*
X220649093Y-36215127D02*
G75*
G02*
X223312471Y-35235793I1818144J-833286D01*
G01*
X153961970Y-154922792D02*
G75*
G02*
X151954826Y-152922643I-6991J2000141D01*
G01*
X181150701Y-161729187D02*
G75*
G02*
X178653210Y-160313300I-557712J1926861D01*
G01*
X147625501Y-117448493D02*
G75*
G02*
X146288151Y-115561459I662638J1887025D01*
G01*
X231258151Y-152924493D02*
X231258151Y-130262418D01*
X194340806Y-50378135D02*
X203379141Y-50378135D01*
X146288151Y-98317895D02*
G75*
G02*
X147940581Y-96348329I1999991J6D01*
G01*
X194340806Y-43839919D02*
X185954817Y-43842319D01*
X181150701Y-161729187D02*
X206315223Y-154986373D01*
X149121485Y-95300955D02*
G75*
G02*
X148295271Y-96285738I-1000036J31D01*
G01*
X235491489Y-52916267D02*
X239161190Y-44807844D01*
X217689525Y-42673161D02*
G75*
G02*
X215871356Y-43839939I-1818148J833188D01*
G01*
X206315223Y-154986373D02*
G75*
G02*
X206833419Y-154918225I517508J-1930869D01*
G01*
X215871356Y-43839935D02*
X203379141Y-43839936D01*
X194340806Y-43839936D02*
X194340806Y-50378135D01*
X206833419Y-154918225D02*
X229258151Y-154924493D01*
X238184346Y-42170593D02*
X223312498Y-35235736D01*
X185954816Y-61292415D02*
X185954817Y-43842605D01*
X238184346Y-42170593D02*
G75*
G02*
X239161191Y-44807844I-845236J-1812616D01*
G01*
X153961970Y-154922792D02*
X175667551Y-154904398D01*
X231258151Y-152924493D02*
G75*
G02*
X229258151Y-154924493I-2000010J10D01*
G01*
X230904528Y-66847917D02*
G75*
G02*
X235491489Y-52916267I54834943J-10333321D01*
G01*
X151954816Y-77800954D02*
G75*
G02*
X151128602Y-78785738I-1000082J68D01*
G01*
X141505444Y-139445876D02*
X149954796Y-139445876D01*
X141505444Y-133445876D02*
X149954796Y-133445876D01*
X149954796Y-73086247D02*
X141505457Y-73086247D01*
X141505457Y-67086212D02*
X149954796Y-67086212D01*
X151954796Y-67086247D02*
X151954796Y-62292400D01*
D11*
%TO.C,S4*%
X157171474Y-83547612D02*
G75*
G02*
X155971474Y-83547612I-600000J0D01*
G01*
X155971474Y-83547612D02*
G75*
G02*
X157171474Y-83547612I600000J0D01*
G01*
X162571474Y-95147612D02*
G75*
G02*
X161571474Y-95147612I-500000J0D01*
G01*
X161571474Y-95147612D02*
G75*
G02*
X162571474Y-95147612I500000J0D01*
G01*
%TO.C,S19*%
X106834998Y-156095479D02*
G75*
G02*
X105635000Y-156095479I-599999J0D01*
G01*
X105635000Y-156095479D02*
G75*
G02*
X106834998Y-156095479I599999J0D01*
G01*
X104424708Y-143467233D02*
G75*
G02*
X103424706Y-143467233I-500001J0D01*
G01*
X103424706Y-143467233D02*
G75*
G02*
X104424708Y-143467233I500001J0D01*
G01*
%TO.C,S30*%
X91003061Y-119283028D02*
G75*
G02*
X90003059Y-119283028I-500001J0D01*
G01*
X90003059Y-119283028D02*
G75*
G02*
X91003061Y-119283028I500001J0D01*
G01*
X95571123Y-131318244D02*
G75*
G02*
X94371125Y-131318244I-599999J0D01*
G01*
X94371125Y-131318244D02*
G75*
G02*
X95571123Y-131318244I599999J0D01*
G01*
%TO.C,S35*%
X67642986Y-62277964D02*
G75*
G02*
X66642986Y-62277964I-500000J0D01*
G01*
X66642986Y-62277964D02*
G75*
G02*
X67642986Y-62277964I500000J0D01*
G01*
X75534573Y-72480962D02*
G75*
G02*
X74334575Y-72480962I-599999J0D01*
G01*
X74334575Y-72480962D02*
G75*
G02*
X75534573Y-72480962I599999J0D01*
G01*
%TO.C,S21*%
X132722110Y-101079464D02*
G75*
G02*
X131722110Y-101079464I-500000J0D01*
G01*
X131722110Y-101079464D02*
G75*
G02*
X132722110Y-101079464I500000J0D01*
G01*
X138322110Y-112679464D02*
G75*
G02*
X137122110Y-112679464I-600000J0D01*
G01*
X137122110Y-112679464D02*
G75*
G02*
X138322110Y-112679464I600000J0D01*
G01*
%TO.C,S33*%
X92055445Y-66079462D02*
G75*
G02*
X91055445Y-66079462I-500000J0D01*
G01*
X91055445Y-66079462D02*
G75*
G02*
X92055445Y-66079462I500000J0D01*
G01*
X97655445Y-77679462D02*
G75*
G02*
X96455445Y-77679462I-600000J0D01*
G01*
X96455445Y-77679462D02*
G75*
G02*
X97655445Y-77679462I600000J0D01*
G01*
%TO.C,S25*%
X108436471Y-120808253D02*
G75*
G02*
X107436469Y-120808253I-500001J0D01*
G01*
X107436469Y-120808253D02*
G75*
G02*
X108436471Y-120808253I500001J0D01*
G01*
X113004533Y-132843469D02*
G75*
G02*
X111804535Y-132843469I-599999J0D01*
G01*
X111804535Y-132843469D02*
G75*
G02*
X113004533Y-132843469I599999J0D01*
G01*
%TO.C,S31*%
X97722112Y-101079464D02*
G75*
G02*
X96722112Y-101079464I-500000J0D01*
G01*
X96722112Y-101079464D02*
G75*
G02*
X97722112Y-101079464I500000J0D01*
G01*
X103322112Y-112679464D02*
G75*
G02*
X102122112Y-112679464I-600000J0D01*
G01*
X102122112Y-112679464D02*
G75*
G02*
X103322112Y-112679464I600000J0D01*
G01*
%TO.C,S23*%
X127055445Y-66079462D02*
G75*
G02*
X126055445Y-66079462I-500000J0D01*
G01*
X126055445Y-66079462D02*
G75*
G02*
X127055445Y-66079462I500000J0D01*
G01*
X132655445Y-77679462D02*
G75*
G02*
X131455445Y-77679462I-600000J0D01*
G01*
X131455445Y-77679462D02*
G75*
G02*
X132655445Y-77679462I600000J0D01*
G01*
%TO.C,S22*%
X129888778Y-83579463D02*
G75*
G02*
X128888778Y-83579463I-500000J0D01*
G01*
X128888778Y-83579463D02*
G75*
G02*
X129888778Y-83579463I500000J0D01*
G01*
X135488778Y-95179463D02*
G75*
G02*
X134288778Y-95179463I-600000J0D01*
G01*
X134288778Y-95179463D02*
G75*
G02*
X135488778Y-95179463I600000J0D01*
G01*
%TO.C,S27*%
X112388779Y-83579464D02*
G75*
G02*
X111388779Y-83579464I-500000J0D01*
G01*
X111388779Y-83579464D02*
G75*
G02*
X112388779Y-83579464I500000J0D01*
G01*
X117988779Y-95179464D02*
G75*
G02*
X116788779Y-95179464I-600000J0D01*
G01*
X116788779Y-95179464D02*
G75*
G02*
X117988779Y-95179464I600000J0D01*
G01*
%TO.C,S24*%
X87521007Y-138937901D02*
G75*
G02*
X86521005Y-138937901I-500001J0D01*
G01*
X86521005Y-138937901D02*
G75*
G02*
X87521007Y-138937901I500001J0D01*
G01*
X89931297Y-151566147D02*
G75*
G02*
X88731299Y-151566147I-599999J0D01*
G01*
X88731299Y-151566147D02*
G75*
G02*
X89931297Y-151566147I599999J0D01*
G01*
%TO.C,S29*%
X70617304Y-134408567D02*
G75*
G02*
X69617302Y-134408567I-500001J0D01*
G01*
X69617302Y-134408567D02*
G75*
G02*
X70617304Y-134408567I500001J0D01*
G01*
X73027594Y-147036813D02*
G75*
G02*
X71827596Y-147036813I-599999J0D01*
G01*
X71827596Y-147036813D02*
G75*
G02*
X73027594Y-147036813I599999J0D01*
G01*
%TO.C,S34*%
X70888779Y-81579464D02*
G75*
G02*
X69888779Y-81579464I-500000J0D01*
G01*
X69888779Y-81579464D02*
G75*
G02*
X70888779Y-81579464I500000J0D01*
G01*
X76488779Y-93179464D02*
G75*
G02*
X75288779Y-93179464I-600000J0D01*
G01*
X75288779Y-93179464D02*
G75*
G02*
X76488779Y-93179464I600000J0D01*
G01*
%TO.C,S36*%
X60595249Y-43885079D02*
G75*
G02*
X59595249Y-43885079I-500000J0D01*
G01*
X59595249Y-43885079D02*
G75*
G02*
X60595249Y-43885079I500000J0D01*
G01*
X70582313Y-52073849D02*
G75*
G02*
X69382313Y-52073849I-600000J0D01*
G01*
X69382313Y-52073849D02*
G75*
G02*
X70582313Y-52073849I600000J0D01*
G01*
%TO.C,S28*%
X109555443Y-66079463D02*
G75*
G02*
X108555443Y-66079463I-500000J0D01*
G01*
X108555443Y-66079463D02*
G75*
G02*
X109555443Y-66079463I500000J0D01*
G01*
X115155443Y-77679463D02*
G75*
G02*
X113955443Y-77679463I-600000J0D01*
G01*
X113955443Y-77679463D02*
G75*
G02*
X115155443Y-77679463I600000J0D01*
G01*
%TO.C,S26*%
X115222111Y-101079464D02*
G75*
G02*
X114222111Y-101079464I-500000J0D01*
G01*
X114222111Y-101079464D02*
G75*
G02*
X115222111Y-101079464I500000J0D01*
G01*
X120822111Y-112679464D02*
G75*
G02*
X119622111Y-112679464I-600000J0D01*
G01*
X119622111Y-112679464D02*
G75*
G02*
X120822111Y-112679464I600000J0D01*
G01*
%TO.C,S32*%
X94888780Y-83579463D02*
G75*
G02*
X93888780Y-83579463I-500000J0D01*
G01*
X93888780Y-83579463D02*
G75*
G02*
X94888780Y-83579463I500000J0D01*
G01*
X100488780Y-95179463D02*
G75*
G02*
X99288780Y-95179463I-600000J0D01*
G01*
X99288780Y-95179463D02*
G75*
G02*
X100488780Y-95179463I600000J0D01*
G01*
%TO.C,S20*%
X125869876Y-122333478D02*
G75*
G02*
X124869874Y-122333478I-500001J0D01*
G01*
X124869874Y-122333478D02*
G75*
G02*
X125869876Y-122333478I500001J0D01*
G01*
X130437938Y-134368694D02*
G75*
G02*
X129237940Y-134368694I-599999J0D01*
G01*
X129237940Y-134368694D02*
G75*
G02*
X130437938Y-134368694I599999J0D01*
G01*
%TO.C,S9*%
X174671473Y-83547612D02*
G75*
G02*
X173471473Y-83547612I-600000J0D01*
G01*
X173471473Y-83547612D02*
G75*
G02*
X174671473Y-83547612I600000J0D01*
G01*
X180071473Y-95147612D02*
G75*
G02*
X179071473Y-95147612I-500000J0D01*
G01*
X179071473Y-95147612D02*
G75*
G02*
X180071473Y-95147612I500000J0D01*
G01*
%TO.C,S8*%
X171838140Y-101047612D02*
G75*
G02*
X170638140Y-101047612I-600000J0D01*
G01*
X170638140Y-101047612D02*
G75*
G02*
X171838140Y-101047612I600000J0D01*
G01*
X177238140Y-112647612D02*
G75*
G02*
X176238140Y-112647612I-500000J0D01*
G01*
X176238140Y-112647612D02*
G75*
G02*
X177238140Y-112647612I500000J0D01*
G01*
%TO.C,S13*%
X194738140Y-112647613D02*
G75*
G02*
X193738140Y-112647613I-500000J0D01*
G01*
X193738140Y-112647613D02*
G75*
G02*
X194738140Y-112647613I500000J0D01*
G01*
X189338140Y-101047613D02*
G75*
G02*
X188138140Y-101047613I-600000J0D01*
G01*
X188138140Y-101047613D02*
G75*
G02*
X189338140Y-101047613I600000J0D01*
G01*
%TO.C,S6*%
X207941546Y-150110789D02*
G75*
G02*
X206941548Y-150110789I-499999J0D01*
G01*
X206941548Y-150110789D02*
G75*
G02*
X207941546Y-150110789I499999J0D01*
G01*
X199726653Y-140329555D02*
G75*
G02*
X198526653Y-140329555I-600000J0D01*
G01*
X198526653Y-140329555D02*
G75*
G02*
X199726653Y-140329555I600000J0D01*
G01*
%TO.C,S10*%
X182904807Y-77647613D02*
G75*
G02*
X181904807Y-77647613I-500000J0D01*
G01*
X181904807Y-77647613D02*
G75*
G02*
X182904807Y-77647613I500000J0D01*
G01*
X177504807Y-66047613D02*
G75*
G02*
X176304807Y-66047613I-600000J0D01*
G01*
X176304807Y-66047613D02*
G75*
G02*
X177504807Y-66047613I600000J0D01*
G01*
%TO.C,S1*%
X191037845Y-154640121D02*
G75*
G02*
X190037847Y-154640121I-499999J0D01*
G01*
X190037847Y-154640121D02*
G75*
G02*
X191037845Y-154640121I499999J0D01*
G01*
X182822952Y-144858887D02*
G75*
G02*
X181622952Y-144858887I-600000J0D01*
G01*
X181622952Y-144858887D02*
G75*
G02*
X182822952Y-144858887I600000J0D01*
G01*
%TO.C,S18*%
X226962636Y-54366399D02*
G75*
G02*
X225962634Y-54366399I-500001J0D01*
G01*
X225962634Y-54366399D02*
G75*
G02*
X226962636Y-54366399I500001J0D01*
G01*
X226980312Y-41528827D02*
G75*
G02*
X225780314Y-41528827I-599999J0D01*
G01*
X225780314Y-41528827D02*
G75*
G02*
X226980312Y-41528827I599999J0D01*
G01*
%TO.C,S14*%
X197571473Y-95147612D02*
G75*
G02*
X196571473Y-95147612I-500000J0D01*
G01*
X196571473Y-95147612D02*
G75*
G02*
X197571473Y-95147612I500000J0D01*
G01*
X192171473Y-83547612D02*
G75*
G02*
X190971473Y-83547612I-600000J0D01*
G01*
X190971473Y-83547612D02*
G75*
G02*
X192171473Y-83547612I600000J0D01*
G01*
%TO.C,S11*%
X224845249Y-145581456D02*
G75*
G02*
X223845251Y-145581456I-499999J0D01*
G01*
X223845251Y-145581456D02*
G75*
G02*
X224845249Y-145581456I499999J0D01*
G01*
X216630356Y-135800222D02*
G75*
G02*
X215430356Y-135800222I-600000J0D01*
G01*
X215430356Y-135800222D02*
G75*
G02*
X216630356Y-135800222I600000J0D01*
G01*
%TO.C,S3*%
X159738140Y-112647612D02*
G75*
G02*
X158738140Y-112647612I-500000J0D01*
G01*
X158738140Y-112647612D02*
G75*
G02*
X159738140Y-112647612I500000J0D01*
G01*
X154338140Y-101047612D02*
G75*
G02*
X153138140Y-101047612I-600000J0D01*
G01*
X153138140Y-101047612D02*
G75*
G02*
X154338140Y-101047612I600000J0D01*
G01*
%TO.C,S5*%
X165404808Y-77647613D02*
G75*
G02*
X164404808Y-77647613I-500000J0D01*
G01*
X164404808Y-77647613D02*
G75*
G02*
X165404808Y-77647613I500000J0D01*
G01*
X160004808Y-66047613D02*
G75*
G02*
X158804808Y-66047613I-600000J0D01*
G01*
X158804808Y-66047613D02*
G75*
G02*
X160004808Y-66047613I600000J0D01*
G01*
%TO.C,S17*%
X222405491Y-73592627D02*
G75*
G02*
X221405491Y-73592627I-500000J0D01*
G01*
X221405491Y-73592627D02*
G75*
G02*
X222405491Y-73592627I500000J0D01*
G01*
X219537455Y-61102601D02*
G75*
G02*
X218337455Y-61102601I-600000J0D01*
G01*
X218337455Y-61102601D02*
G75*
G02*
X219537455Y-61102601I600000J0D01*
G01*
%TO.C,S2*%
X167601384Y-133857486D02*
G75*
G02*
X166601384Y-133857486I-500000J0D01*
G01*
X166601384Y-133857486D02*
G75*
G02*
X167601384Y-133857486I500000J0D01*
G01*
X161211306Y-122780984D02*
G75*
G02*
X160011306Y-122780984I-600000J0D01*
G01*
X160011306Y-122780984D02*
G75*
G02*
X161211306Y-122780984I600000J0D01*
G01*
%TO.C,S12*%
X202468198Y-130807036D02*
G75*
G02*
X201468198Y-130807036I-500000J0D01*
G01*
X201468198Y-130807036D02*
G75*
G02*
X202468198Y-130807036I500000J0D01*
G01*
X196078120Y-119730534D02*
G75*
G02*
X194878120Y-119730534I-600000J0D01*
G01*
X194878120Y-119730534D02*
G75*
G02*
X196078120Y-119730534I600000J0D01*
G01*
%TO.C,S7*%
X185034792Y-132332261D02*
G75*
G02*
X184034792Y-132332261I-500000J0D01*
G01*
X184034792Y-132332261D02*
G75*
G02*
X185034792Y-132332261I500000J0D01*
G01*
X178644714Y-121255759D02*
G75*
G02*
X177444714Y-121255759I-600000J0D01*
G01*
X177444714Y-121255759D02*
G75*
G02*
X178644714Y-121255759I600000J0D01*
G01*
%TO.C,S15*%
X200404806Y-77647613D02*
G75*
G02*
X199404806Y-77647613I-500000J0D01*
G01*
X199404806Y-77647613D02*
G75*
G02*
X200404806Y-77647613I500000J0D01*
G01*
X195004806Y-66047613D02*
G75*
G02*
X193804806Y-66047613I-600000J0D01*
G01*
X193804806Y-66047613D02*
G75*
G02*
X195004806Y-66047613I600000J0D01*
G01*
%TO.C,S16*%
X221571473Y-93147612D02*
G75*
G02*
X220571473Y-93147612I-500000J0D01*
G01*
X220571473Y-93147612D02*
G75*
G02*
X221571473Y-93147612I500000J0D01*
G01*
X216171473Y-81547612D02*
G75*
G02*
X214971473Y-81547612I-600000J0D01*
G01*
X214971473Y-81547612D02*
G75*
G02*
X216171473Y-81547612I600000J0D01*
G01*
D10*
%TO.C,REF\u002A\u002A*%
X149954796Y-73086247D02*
G75*
G02*
X151954796Y-73086247I1000000J0D01*
G01*
X151954796Y-67086247D02*
G75*
G02*
X149954796Y-67086247I-1000000J0D01*
G01*
X139505457Y-73086212D02*
G75*
G02*
X141505457Y-73086212I1000000J0D01*
G01*
X141505457Y-67086212D02*
G75*
G02*
X139505457Y-67086212I-1000000J0D01*
G01*
X149954796Y-139437527D02*
G75*
G02*
X151954796Y-139437527I1000000J0D01*
G01*
X151954796Y-133437527D02*
G75*
G02*
X149954796Y-133437527I-1000000J0D01*
G01*
X139505444Y-139445876D02*
G75*
G02*
X141505444Y-139445876I1000000J0D01*
G01*
X141505444Y-133445876D02*
G75*
G02*
X139505444Y-133445876I-1000000J0D01*
G01*
%TD*%
M02*
