%TF.GenerationSoftware,KiCad,Pcbnew,9.0.4*%
%TF.CreationDate,2025-10-15T20:25:43+02:00*%
%TF.ProjectId,wafer_keyboard_v3_production,77616665-725f-46b6-9579-626f6172645f,rev?*%
%TF.SameCoordinates,Original*%
%TF.FileFunction,Soldermask,Bot*%
%TF.FilePolarity,Negative*%
%FSLAX46Y46*%
G04 Gerber Fmt 4.6, Leading zero omitted, Abs format (unit mm)*
G04 Created by KiCad (PCBNEW 9.0.4) date 2025-10-15 20:25:43*
%MOMM*%
%LPD*%
G01*
G04 APERTURE LIST*
%ADD10C,0.000000*%
%ADD11C,2.374900*%
%ADD12C,0.990600*%
%ADD13O,1.000000X2.200000*%
%ADD14O,1.000000X1.800000*%
%ADD15O,1.700000X1.700000*%
%ADD16C,1.700000*%
%ADD17C,4.300000*%
%ADD18C,0.750000*%
%ADD19C,0.500000*%
G04 APERTURE END LIST*
D10*
G36*
X156501783Y-148697338D02*
G01*
X155801899Y-148697338D01*
X155811964Y-148730337D01*
X155820776Y-148763854D01*
X155828306Y-148797861D01*
X155834528Y-148832334D01*
X155839415Y-148867246D01*
X155842939Y-148902571D01*
X155845074Y-148938283D01*
X155845791Y-148974356D01*
X155845791Y-149320616D01*
X155216038Y-149320616D01*
X155216038Y-149008990D01*
X155216017Y-148987669D01*
X155215870Y-148971115D01*
X155215709Y-148964227D01*
X155215470Y-148958054D01*
X155215136Y-148952434D01*
X155214691Y-148947210D01*
X155213196Y-148934962D01*
X155211173Y-148922887D01*
X155208635Y-148910996D01*
X155205592Y-148899301D01*
X155202057Y-148887814D01*
X155198042Y-148876546D01*
X155193559Y-148865509D01*
X155188618Y-148854715D01*
X155183232Y-148844174D01*
X155177413Y-148833900D01*
X155171172Y-148823903D01*
X155164522Y-148814195D01*
X155157474Y-148804788D01*
X155150039Y-148795694D01*
X155142230Y-148786923D01*
X155134058Y-148778488D01*
X155125535Y-148770401D01*
X155116673Y-148762673D01*
X155107484Y-148755315D01*
X155097979Y-148748339D01*
X155088170Y-148741757D01*
X155078069Y-148735581D01*
X155067688Y-148729822D01*
X155057038Y-148724492D01*
X155046131Y-148719603D01*
X155034980Y-148715165D01*
X155023595Y-148711192D01*
X155011989Y-148707693D01*
X155000173Y-148704682D01*
X154988160Y-148702169D01*
X154975960Y-148700167D01*
X154963586Y-148698687D01*
X154958307Y-148698242D01*
X154952627Y-148697907D01*
X154946388Y-148697667D01*
X154939427Y-148697506D01*
X154922700Y-148697359D01*
X154901163Y-148697338D01*
X154879625Y-148697359D01*
X154862898Y-148697506D01*
X154855937Y-148697667D01*
X154849697Y-148697907D01*
X154844017Y-148698242D01*
X154838737Y-148698687D01*
X154826363Y-148700167D01*
X154814163Y-148702169D01*
X154802149Y-148704682D01*
X154790333Y-148707693D01*
X154778727Y-148711192D01*
X154767342Y-148715165D01*
X154756191Y-148719603D01*
X154745284Y-148724492D01*
X154734635Y-148729822D01*
X154724253Y-148735581D01*
X154714152Y-148741757D01*
X154704344Y-148748339D01*
X154694839Y-148755315D01*
X154685649Y-148762673D01*
X154676787Y-148770401D01*
X154668264Y-148778488D01*
X154660093Y-148786923D01*
X154652284Y-148795694D01*
X154644849Y-148804788D01*
X154637801Y-148814195D01*
X154631150Y-148823903D01*
X154624910Y-148833900D01*
X154619091Y-148844174D01*
X154613706Y-148854715D01*
X154608765Y-148865509D01*
X154604282Y-148876546D01*
X154600267Y-148887814D01*
X154596733Y-148899301D01*
X154593691Y-148910996D01*
X154591153Y-148922887D01*
X154589131Y-148934962D01*
X154587637Y-148947210D01*
X154587191Y-148952434D01*
X154586857Y-148958054D01*
X154586617Y-148964227D01*
X154586456Y-148971115D01*
X154586308Y-148987669D01*
X154586287Y-149008990D01*
X154586287Y-149320616D01*
X153956534Y-149320616D01*
X153956534Y-148974356D01*
X153957718Y-148928028D01*
X153961230Y-148882308D01*
X153967015Y-148837253D01*
X153975015Y-148792919D01*
X153985172Y-148749363D01*
X153997430Y-148706641D01*
X154011731Y-148664810D01*
X154028018Y-148623926D01*
X154046234Y-148584047D01*
X154066323Y-148545228D01*
X154088226Y-148507526D01*
X154111886Y-148470998D01*
X154137247Y-148435700D01*
X154164252Y-148401690D01*
X154192842Y-148369023D01*
X154222962Y-148337755D01*
X154254553Y-148307945D01*
X154287559Y-148279648D01*
X154321923Y-148252920D01*
X154357586Y-148227819D01*
X154394493Y-148204401D01*
X154432587Y-148182723D01*
X154471809Y-148162840D01*
X154512102Y-148144811D01*
X154553411Y-148128690D01*
X154595676Y-148114535D01*
X154638843Y-148102403D01*
X154682852Y-148092350D01*
X154727647Y-148084432D01*
X154773171Y-148078707D01*
X154819367Y-148075230D01*
X154866177Y-148074058D01*
X156501783Y-148074058D01*
X156501783Y-148697338D01*
G37*
G36*
X156502003Y-152298554D02*
G01*
X155539883Y-152298554D01*
X155518345Y-152298574D01*
X155501619Y-152298716D01*
X155494658Y-152298871D01*
X155488418Y-152299101D01*
X155482739Y-152299423D01*
X155477460Y-152299851D01*
X155465085Y-152301334D01*
X155452886Y-152303338D01*
X155440872Y-152305853D01*
X155429056Y-152308866D01*
X155417450Y-152312366D01*
X155406065Y-152316341D01*
X155394914Y-152320780D01*
X155384007Y-152325671D01*
X155373358Y-152331003D01*
X155362976Y-152336762D01*
X155352875Y-152342939D01*
X155343067Y-152349522D01*
X155333562Y-152356498D01*
X155324372Y-152363856D01*
X155315510Y-152371585D01*
X155306987Y-152379672D01*
X155298816Y-152388107D01*
X155291006Y-152396877D01*
X155283572Y-152405972D01*
X155276523Y-152415378D01*
X155269873Y-152425085D01*
X155263632Y-152435081D01*
X155257813Y-152445355D01*
X155252427Y-152455894D01*
X155247487Y-152466687D01*
X155243003Y-152477722D01*
X155238988Y-152488989D01*
X155235453Y-152500474D01*
X155232411Y-152512167D01*
X155229872Y-152524056D01*
X155227849Y-152536129D01*
X155226354Y-152548375D01*
X155225910Y-152553617D01*
X155225575Y-152559252D01*
X155225336Y-152565437D01*
X155225176Y-152572332D01*
X155225028Y-152588885D01*
X155225007Y-152610181D01*
X155225007Y-152921833D01*
X154595254Y-152921833D01*
X154595254Y-152610181D01*
X154595309Y-152572332D01*
X154595434Y-152559252D01*
X154595675Y-152548375D01*
X154598118Y-152504038D01*
X154602689Y-152460300D01*
X154609337Y-152417211D01*
X154618012Y-152374821D01*
X154628662Y-152333180D01*
X154641238Y-152292339D01*
X154655687Y-152252347D01*
X154671960Y-152213255D01*
X154690005Y-152175113D01*
X154709772Y-152137972D01*
X154731209Y-152101882D01*
X154754267Y-152066892D01*
X154778894Y-152033054D01*
X154805040Y-152000417D01*
X154832653Y-151969032D01*
X154861683Y-151938949D01*
X154892080Y-151910219D01*
X154923791Y-151882890D01*
X154956767Y-151857015D01*
X154990957Y-151832642D01*
X155026310Y-151809823D01*
X155062775Y-151788607D01*
X155100301Y-151769045D01*
X155138838Y-151751187D01*
X155178334Y-151735084D01*
X155218740Y-151720784D01*
X155260003Y-151708340D01*
X155302074Y-151697801D01*
X155344901Y-151689217D01*
X155388434Y-151682638D01*
X155432622Y-151678115D01*
X155477414Y-151675699D01*
X155486092Y-151675487D01*
X155496038Y-151675358D01*
X155522388Y-151675276D01*
X156502003Y-151675276D01*
X156502003Y-152298554D01*
G37*
G36*
X155504743Y-145918578D02*
G01*
X157131613Y-145918578D01*
X157131613Y-146541856D01*
X156405480Y-146541856D01*
X156415545Y-146574848D01*
X156424357Y-146608362D01*
X156431887Y-146642369D01*
X156438109Y-146676844D01*
X156442996Y-146711759D01*
X156446520Y-146747087D01*
X156448654Y-146782801D01*
X156449372Y-146818875D01*
X156449372Y-146888117D01*
X156448654Y-146924191D01*
X156446520Y-146959905D01*
X156442996Y-146995233D01*
X156438109Y-147030148D01*
X156431887Y-147064623D01*
X156424357Y-147098630D01*
X156415545Y-147132143D01*
X156405480Y-147165135D01*
X157131613Y-147165135D01*
X157131613Y-147788414D01*
X155469758Y-147788414D01*
X155422947Y-147787243D01*
X155376751Y-147783766D01*
X155331227Y-147778041D01*
X155286432Y-147770124D01*
X155242422Y-147760071D01*
X155199256Y-147747940D01*
X155156990Y-147733786D01*
X155115682Y-147717666D01*
X155075388Y-147699637D01*
X155036166Y-147679755D01*
X154998073Y-147658078D01*
X154961166Y-147634660D01*
X154925502Y-147609560D01*
X154891139Y-147582834D01*
X154858133Y-147554537D01*
X154826542Y-147524727D01*
X154796422Y-147493461D01*
X154767832Y-147460794D01*
X154740827Y-147426784D01*
X154715466Y-147391486D01*
X154691806Y-147354958D01*
X154669903Y-147317257D01*
X154649815Y-147278438D01*
X154631598Y-147238558D01*
X154615311Y-147197673D01*
X154601010Y-147155842D01*
X154588752Y-147113119D01*
X154578595Y-147069561D01*
X154570596Y-147025226D01*
X154564811Y-146980169D01*
X154561298Y-146934447D01*
X154560115Y-146888117D01*
X154560115Y-146853509D01*
X155189868Y-146853509D01*
X155189889Y-146874819D01*
X155190036Y-146891375D01*
X155190197Y-146898265D01*
X155190436Y-146904442D01*
X155190770Y-146910064D01*
X155191215Y-146915289D01*
X155192710Y-146927535D01*
X155194732Y-146939608D01*
X155197271Y-146951497D01*
X155200313Y-146963191D01*
X155203848Y-146974677D01*
X155207863Y-146985943D01*
X155212346Y-146996980D01*
X155217287Y-147007774D01*
X155222673Y-147018313D01*
X155228492Y-147028588D01*
X155234732Y-147038584D01*
X155241383Y-147048292D01*
X155248431Y-147057700D01*
X155255866Y-147066794D01*
X155263675Y-147075565D01*
X155271847Y-147084001D01*
X155280370Y-147092089D01*
X155289232Y-147099818D01*
X155298421Y-147107177D01*
X155307926Y-147114153D01*
X155317735Y-147120736D01*
X155327836Y-147126913D01*
X155338217Y-147132672D01*
X155348866Y-147138003D01*
X155359773Y-147142894D01*
X155370924Y-147147332D01*
X155382309Y-147151306D01*
X155393915Y-147154805D01*
X155405731Y-147157817D01*
X155417744Y-147160330D01*
X155429944Y-147162332D01*
X155442318Y-147163813D01*
X155447598Y-147164249D01*
X155453277Y-147164577D01*
X155459518Y-147164812D01*
X155466479Y-147164970D01*
X155483206Y-147165115D01*
X155504743Y-147165135D01*
X155526280Y-147165115D01*
X155543007Y-147164970D01*
X155549968Y-147164812D01*
X155556208Y-147164577D01*
X155561887Y-147164249D01*
X155567166Y-147163813D01*
X155579541Y-147162332D01*
X155591740Y-147160330D01*
X155603754Y-147157817D01*
X155615570Y-147154805D01*
X155627176Y-147151306D01*
X155638561Y-147147332D01*
X155649712Y-147142894D01*
X155660619Y-147138003D01*
X155671268Y-147132672D01*
X155681650Y-147126913D01*
X155691750Y-147120736D01*
X155701559Y-147114153D01*
X155711064Y-147107177D01*
X155720254Y-147099818D01*
X155729116Y-147092089D01*
X155737638Y-147084001D01*
X155745810Y-147075565D01*
X155753620Y-147066794D01*
X155761054Y-147057700D01*
X155768103Y-147048292D01*
X155774753Y-147038584D01*
X155780994Y-147028588D01*
X155786813Y-147018313D01*
X155792199Y-147007774D01*
X155797139Y-146996980D01*
X155801623Y-146985943D01*
X155805638Y-146974677D01*
X155809173Y-146963191D01*
X155812215Y-146951497D01*
X155814754Y-146939608D01*
X155816777Y-146927535D01*
X155818272Y-146915289D01*
X155818716Y-146910064D01*
X155819050Y-146904442D01*
X155819290Y-146898265D01*
X155819450Y-146891375D01*
X155819598Y-146874819D01*
X155819619Y-146853509D01*
X155819598Y-146832188D01*
X155819450Y-146815634D01*
X155819290Y-146808747D01*
X155819050Y-146802573D01*
X155818716Y-146796953D01*
X155818272Y-146791729D01*
X155816777Y-146779481D01*
X155814754Y-146767405D01*
X155812215Y-146755514D01*
X155809173Y-146743819D01*
X155805638Y-146732331D01*
X155801623Y-146721062D01*
X155797139Y-146710025D01*
X155792199Y-146699229D01*
X155786813Y-146688688D01*
X155780994Y-146678413D01*
X155774753Y-146668415D01*
X155768103Y-146658706D01*
X155761054Y-146649298D01*
X155753620Y-146640202D01*
X155745810Y-146631430D01*
X155737638Y-146622994D01*
X155729116Y-146614905D01*
X155720254Y-146607176D01*
X155711064Y-146599817D01*
X155701559Y-146592840D01*
X155691750Y-146586257D01*
X155681650Y-146580080D01*
X155671268Y-146574320D01*
X155660619Y-146568989D01*
X155649712Y-146564099D01*
X155638561Y-146559660D01*
X155627176Y-146555686D01*
X155615570Y-146552187D01*
X155603754Y-146549175D01*
X155591740Y-146546662D01*
X155579541Y-146544660D01*
X155567166Y-146543179D01*
X155561887Y-146542743D01*
X155556208Y-146542415D01*
X155549968Y-146542179D01*
X155543007Y-146542022D01*
X155526280Y-146541877D01*
X155504743Y-146541856D01*
X155483206Y-146541877D01*
X155466479Y-146542022D01*
X155459518Y-146542179D01*
X155453277Y-146542415D01*
X155447598Y-146542743D01*
X155442318Y-146543179D01*
X155429944Y-146544660D01*
X155417744Y-146546662D01*
X155405731Y-146549175D01*
X155393915Y-146552187D01*
X155382309Y-146555686D01*
X155370924Y-146559660D01*
X155359773Y-146564099D01*
X155348866Y-146568989D01*
X155338217Y-146574320D01*
X155327836Y-146580080D01*
X155317735Y-146586257D01*
X155307926Y-146592840D01*
X155298421Y-146599817D01*
X155289232Y-146607176D01*
X155280370Y-146614905D01*
X155271847Y-146622994D01*
X155263675Y-146631430D01*
X155255866Y-146640202D01*
X155248431Y-146649298D01*
X155241383Y-146658706D01*
X155234732Y-146668415D01*
X155228492Y-146678413D01*
X155222673Y-146688688D01*
X155217287Y-146699229D01*
X155212346Y-146710025D01*
X155207863Y-146721062D01*
X155203848Y-146732331D01*
X155200313Y-146743819D01*
X155197271Y-146755514D01*
X155194732Y-146767405D01*
X155192710Y-146779481D01*
X155191215Y-146791729D01*
X155190770Y-146796953D01*
X155190436Y-146802573D01*
X155190197Y-146808747D01*
X155190036Y-146815634D01*
X155189889Y-146832188D01*
X155189868Y-146853509D01*
X154560115Y-146853509D01*
X154560115Y-146818875D01*
X154561298Y-146772545D01*
X154564811Y-146726823D01*
X154570596Y-146681766D01*
X154578595Y-146637431D01*
X154588752Y-146593873D01*
X154601010Y-146551150D01*
X154615311Y-146509318D01*
X154631598Y-146468434D01*
X154649815Y-146428554D01*
X154669903Y-146389735D01*
X154691806Y-146352033D01*
X154715466Y-146315506D01*
X154740827Y-146280208D01*
X154767832Y-146246198D01*
X154796422Y-146213531D01*
X154826542Y-146182265D01*
X154858133Y-146152455D01*
X154891139Y-146124158D01*
X154925502Y-146097432D01*
X154961166Y-146072331D01*
X154998073Y-146048914D01*
X155036166Y-146027237D01*
X155075388Y-146007355D01*
X155115682Y-145989326D01*
X155156990Y-145973206D01*
X155199256Y-145959052D01*
X155242422Y-145946921D01*
X155286432Y-145936868D01*
X155331227Y-145928951D01*
X155376751Y-145923226D01*
X155422947Y-145919749D01*
X155469758Y-145918578D01*
X155504743Y-145918578D01*
G37*
G36*
X155574686Y-142603118D02*
G01*
X155595344Y-142603213D01*
X155603557Y-142603324D01*
X155610913Y-142603498D01*
X155655705Y-142605916D01*
X155699893Y-142610441D01*
X155743426Y-142617021D01*
X155786253Y-142625607D01*
X155828324Y-142636148D01*
X155869588Y-142648594D01*
X155909993Y-142662895D01*
X155949490Y-142679001D01*
X155988026Y-142696861D01*
X156025553Y-142716424D01*
X156062018Y-142737642D01*
X156097371Y-142760463D01*
X156131561Y-142784837D01*
X156164537Y-142810714D01*
X156196249Y-142838043D01*
X156226645Y-142866775D01*
X156255675Y-142896859D01*
X156283289Y-142928245D01*
X156309434Y-142960882D01*
X156334062Y-142994720D01*
X156357120Y-143029710D01*
X156378557Y-143065800D01*
X156398324Y-143102940D01*
X156416370Y-143141081D01*
X156432642Y-143180171D01*
X156447092Y-143220161D01*
X156459667Y-143261001D01*
X156470318Y-143302639D01*
X156478993Y-143345026D01*
X156485641Y-143388112D01*
X156490212Y-143431845D01*
X156492655Y-143476177D01*
X156492897Y-143487054D01*
X156493021Y-143500134D01*
X156493073Y-143538005D01*
X156493021Y-143575874D01*
X156492897Y-143588954D01*
X156492655Y-143599830D01*
X156490690Y-143637888D01*
X156487155Y-143675511D01*
X156482081Y-143712668D01*
X156475500Y-143749326D01*
X156467445Y-143785455D01*
X156457948Y-143821022D01*
X156447039Y-143855996D01*
X156434753Y-143890345D01*
X156421120Y-143924038D01*
X156406172Y-143957042D01*
X156389943Y-143989325D01*
X156372463Y-144020858D01*
X156353765Y-144051606D01*
X156333881Y-144081540D01*
X156312842Y-144110626D01*
X156290682Y-144138834D01*
X156267432Y-144166131D01*
X156243123Y-144192486D01*
X156217789Y-144217868D01*
X156191461Y-144242244D01*
X156164171Y-144265583D01*
X156135952Y-144287853D01*
X156106835Y-144309022D01*
X156076852Y-144329059D01*
X156046035Y-144347931D01*
X156014417Y-144365608D01*
X155982029Y-144382058D01*
X155948904Y-144397248D01*
X155915074Y-144411147D01*
X155880570Y-144423724D01*
X155845425Y-144434946D01*
X155809670Y-144444782D01*
X155820944Y-144477761D01*
X155830953Y-144511300D01*
X155839670Y-144545371D01*
X155847067Y-144579946D01*
X155853117Y-144614998D01*
X155857791Y-144650499D01*
X155861062Y-144686422D01*
X155862902Y-144722738D01*
X155863145Y-144733614D01*
X155863270Y-144746694D01*
X155863322Y-144784566D01*
X155863270Y-144822434D01*
X155863145Y-144835514D01*
X155862902Y-144846391D01*
X155860459Y-144890724D01*
X155855888Y-144934458D01*
X155849239Y-144977545D01*
X155840565Y-145019933D01*
X155829914Y-145061572D01*
X155817339Y-145102412D01*
X155802889Y-145142402D01*
X155786617Y-145181493D01*
X155768572Y-145219634D01*
X155748805Y-145256774D01*
X155727367Y-145292865D01*
X155704309Y-145327854D01*
X155679682Y-145361693D01*
X155653537Y-145394330D01*
X155625923Y-145425716D01*
X155596893Y-145455799D01*
X155566497Y-145484531D01*
X155534785Y-145511861D01*
X155501809Y-145537738D01*
X155467619Y-145562112D01*
X155432266Y-145584933D01*
X155395802Y-145606150D01*
X155358275Y-145625714D01*
X155319739Y-145643574D01*
X155280242Y-145659680D01*
X155239837Y-145673982D01*
X155198573Y-145686428D01*
X155156503Y-145696970D01*
X155113675Y-145705556D01*
X155070142Y-145712137D01*
X155025954Y-145716663D01*
X154981162Y-145719082D01*
X154973806Y-145719248D01*
X154965592Y-145719356D01*
X154944933Y-145719452D01*
X154944933Y-145719479D01*
X153965319Y-145719479D01*
X153965319Y-145096205D01*
X154918694Y-145096205D01*
X154940231Y-145096184D01*
X154956958Y-145096038D01*
X154963919Y-145095879D01*
X154970159Y-145095642D01*
X154975838Y-145095312D01*
X154981117Y-145094871D01*
X154993491Y-145093392D01*
X155005691Y-145091390D01*
X155017705Y-145088877D01*
X155029521Y-145085866D01*
X155041127Y-145082368D01*
X155052511Y-145078394D01*
X155063663Y-145073956D01*
X155074569Y-145069066D01*
X155085219Y-145063736D01*
X155095600Y-145057977D01*
X155105701Y-145051800D01*
X155115510Y-145045218D01*
X155125015Y-145038242D01*
X155134204Y-145030884D01*
X155143066Y-145023155D01*
X155151589Y-145015067D01*
X155159761Y-145006632D01*
X155167570Y-144997861D01*
X155175005Y-144988766D01*
X155182053Y-144979359D01*
X155188704Y-144969651D01*
X155194944Y-144959654D01*
X155200763Y-144949379D01*
X155206149Y-144938839D01*
X155211090Y-144928045D01*
X155215574Y-144917008D01*
X155219589Y-144905740D01*
X155223123Y-144894254D01*
X155226166Y-144882559D01*
X155228704Y-144870669D01*
X155230727Y-144858595D01*
X155232222Y-144846348D01*
X155232667Y-144841123D01*
X155233001Y-144835501D01*
X155233240Y-144829325D01*
X155233401Y-144822435D01*
X155233548Y-144805880D01*
X155233569Y-144784566D01*
X155233548Y-144763249D01*
X155233401Y-144746694D01*
X155233240Y-144739805D01*
X155233001Y-144733629D01*
X155232667Y-144728008D01*
X155232222Y-144722783D01*
X155230727Y-144710536D01*
X155228704Y-144698461D01*
X155226166Y-144686571D01*
X155223123Y-144674877D01*
X155219589Y-144663390D01*
X155215574Y-144652122D01*
X155211090Y-144641085D01*
X155206149Y-144630291D01*
X155200763Y-144619750D01*
X155194944Y-144609476D01*
X155188704Y-144599479D01*
X155182053Y-144589770D01*
X155175005Y-144580363D01*
X155167570Y-144571268D01*
X155159761Y-144562497D01*
X155151589Y-144554062D01*
X155143066Y-144545974D01*
X155134204Y-144538245D01*
X155125015Y-144530887D01*
X155115510Y-144523911D01*
X155105701Y-144517328D01*
X155095600Y-144511152D01*
X155085219Y-144505393D01*
X155074569Y-144500062D01*
X155063663Y-144495172D01*
X155052511Y-144490735D01*
X155041127Y-144486761D01*
X155029521Y-144483262D01*
X155017705Y-144480251D01*
X155005691Y-144477739D01*
X154993491Y-144475737D01*
X154981117Y-144474257D01*
X154975838Y-144473817D01*
X154970159Y-144473486D01*
X154963919Y-144473249D01*
X154956958Y-144473090D01*
X154940231Y-144472944D01*
X154918694Y-144472923D01*
X154595071Y-144472923D01*
X154595071Y-143849644D01*
X155574686Y-143849644D01*
X155574686Y-143849584D01*
X155585857Y-143849476D01*
X155590782Y-143849383D01*
X155595336Y-143849256D01*
X155599570Y-143849091D01*
X155603536Y-143848882D01*
X155607286Y-143848623D01*
X155610870Y-143848311D01*
X155623244Y-143846831D01*
X155635444Y-143844829D01*
X155647457Y-143842317D01*
X155659273Y-143839306D01*
X155670879Y-143835807D01*
X155682264Y-143831833D01*
X155693415Y-143827396D01*
X155704321Y-143822506D01*
X155714971Y-143817175D01*
X155725352Y-143811416D01*
X155735453Y-143805240D01*
X155745262Y-143798658D01*
X155754767Y-143791682D01*
X155763956Y-143784323D01*
X155772818Y-143776594D01*
X155781341Y-143768506D01*
X155789513Y-143760071D01*
X155797323Y-143751300D01*
X155804757Y-143742205D01*
X155811806Y-143732798D01*
X155818456Y-143723090D01*
X155824697Y-143713093D01*
X155830516Y-143702819D01*
X155835902Y-143692279D01*
X155840843Y-143681484D01*
X155845327Y-143670447D01*
X155849342Y-143659180D01*
X155852877Y-143647693D01*
X155855919Y-143635999D01*
X155858458Y-143624109D01*
X155860480Y-143612035D01*
X155861976Y-143599788D01*
X155862420Y-143594562D01*
X155862754Y-143588940D01*
X155862994Y-143582764D01*
X155863154Y-143575875D01*
X155863301Y-143559320D01*
X155863322Y-143538005D01*
X155863301Y-143516689D01*
X155863154Y-143500134D01*
X155862994Y-143493244D01*
X155862754Y-143487068D01*
X155862420Y-143481447D01*
X155861976Y-143476222D01*
X155860480Y-143463975D01*
X155858458Y-143451900D01*
X155855919Y-143440010D01*
X155852877Y-143428315D01*
X155849342Y-143416828D01*
X155845327Y-143405560D01*
X155840843Y-143394523D01*
X155835902Y-143383729D01*
X155830516Y-143373188D01*
X155824697Y-143362914D01*
X155818456Y-143352916D01*
X155811806Y-143343208D01*
X155804757Y-143333801D01*
X155797323Y-143324706D01*
X155789513Y-143315935D01*
X155781341Y-143307500D01*
X155772818Y-143299412D01*
X155763956Y-143291683D01*
X155754767Y-143284325D01*
X155745262Y-143277349D01*
X155735453Y-143270767D01*
X155725352Y-143264591D01*
X155714971Y-143258831D01*
X155704321Y-143253501D01*
X155693415Y-143248612D01*
X155682264Y-143244174D01*
X155670879Y-143240201D01*
X155659273Y-143236703D01*
X155647457Y-143233692D01*
X155635444Y-143231180D01*
X155623244Y-143229178D01*
X155610870Y-143227699D01*
X155607286Y-143227385D01*
X155603536Y-143227126D01*
X155599570Y-143226917D01*
X155595336Y-143226752D01*
X155585857Y-143226532D01*
X155574686Y-143226424D01*
X155574686Y-143226363D01*
X154595071Y-143226363D01*
X154595071Y-142603084D01*
X155574686Y-142603084D01*
X155574686Y-142603118D01*
G37*
G36*
X156251582Y-149563117D02*
G01*
X156301761Y-149563554D01*
X156322643Y-149564030D01*
X156341362Y-149564740D01*
X156358397Y-149565730D01*
X156374230Y-149567049D01*
X156411355Y-149571488D01*
X156447956Y-149577493D01*
X156484000Y-149585030D01*
X156519449Y-149594063D01*
X156554269Y-149604558D01*
X156588425Y-149616479D01*
X156621881Y-149629793D01*
X156654602Y-149644462D01*
X156686553Y-149660454D01*
X156717698Y-149677732D01*
X156748002Y-149696263D01*
X156777430Y-149716010D01*
X156805946Y-149736939D01*
X156833515Y-149759015D01*
X156860102Y-149782202D01*
X156885671Y-149806467D01*
X156910188Y-149831774D01*
X156933616Y-149858088D01*
X156955920Y-149885374D01*
X156977066Y-149913597D01*
X156997018Y-149942723D01*
X157015740Y-149972715D01*
X157033197Y-150003540D01*
X157049354Y-150035162D01*
X157064175Y-150067547D01*
X157077626Y-150100658D01*
X157089670Y-150134462D01*
X157100273Y-150168924D01*
X157109400Y-150204008D01*
X157117014Y-150239680D01*
X157123081Y-150275904D01*
X157127565Y-150312645D01*
X157128745Y-150326265D01*
X157129666Y-150340744D01*
X157130362Y-150356397D01*
X157130862Y-150373542D01*
X157131409Y-150413569D01*
X157131560Y-150463352D01*
X157131613Y-150463352D01*
X157131613Y-151363650D01*
X156501849Y-151363650D01*
X156501849Y-150497986D01*
X156501561Y-150484536D01*
X156500705Y-150471233D01*
X156499292Y-150458087D01*
X156497334Y-150445110D01*
X156494843Y-150432314D01*
X156491831Y-150419709D01*
X156488308Y-150407308D01*
X156484288Y-150395122D01*
X156479780Y-150383162D01*
X156474798Y-150371440D01*
X156469353Y-150359968D01*
X156463456Y-150348756D01*
X156457120Y-150337816D01*
X156450355Y-150327160D01*
X156443173Y-150316799D01*
X156435587Y-150306744D01*
X156438256Y-150322617D01*
X156440645Y-150338581D01*
X156442751Y-150354634D01*
X156444572Y-150370774D01*
X156446105Y-150386998D01*
X156447348Y-150403305D01*
X156448297Y-150419690D01*
X156448951Y-150436153D01*
X156449194Y-150447031D01*
X156449319Y-150460114D01*
X156449372Y-150497986D01*
X156449319Y-150535858D01*
X156449194Y-150548941D01*
X156448951Y-150559819D01*
X156446508Y-150604151D01*
X156441937Y-150647884D01*
X156435289Y-150690969D01*
X156426614Y-150733356D01*
X156415964Y-150774994D01*
X156403388Y-150815832D01*
X156388939Y-150855822D01*
X156372666Y-150894912D01*
X156354621Y-150933052D01*
X156334854Y-150970191D01*
X156313416Y-151006280D01*
X156290359Y-151041269D01*
X156265732Y-151075107D01*
X156239586Y-151107743D01*
X156211973Y-151139128D01*
X156182942Y-151169210D01*
X156152546Y-151197941D01*
X156120834Y-151225270D01*
X156087858Y-151251145D01*
X156053669Y-151275518D01*
X156018316Y-151298338D01*
X155981851Y-151319554D01*
X155944325Y-151339117D01*
X155905788Y-151356975D01*
X155866292Y-151373080D01*
X155825886Y-151387379D01*
X155784623Y-151399824D01*
X155742552Y-151410364D01*
X155699725Y-151418949D01*
X155656192Y-151425527D01*
X155612004Y-151430050D01*
X155567211Y-151432467D01*
X155556221Y-151432712D01*
X155543006Y-151432838D01*
X155504743Y-151432891D01*
X155466480Y-151432838D01*
X155453264Y-151432712D01*
X155442275Y-151432467D01*
X155397483Y-151430050D01*
X155353295Y-151425527D01*
X155309762Y-151418949D01*
X155266935Y-151410364D01*
X155224864Y-151399824D01*
X155183600Y-151387379D01*
X155143195Y-151373080D01*
X155103698Y-151356975D01*
X155065162Y-151339117D01*
X155027636Y-151319554D01*
X154991171Y-151298338D01*
X154955818Y-151275518D01*
X154921628Y-151251145D01*
X154888652Y-151225270D01*
X154856940Y-151197941D01*
X154826544Y-151169210D01*
X154797514Y-151139128D01*
X154769900Y-151107743D01*
X154743754Y-151075107D01*
X154719127Y-151041269D01*
X154696069Y-151006280D01*
X154674631Y-150970191D01*
X154654865Y-150933052D01*
X154636819Y-150894912D01*
X154620546Y-150855822D01*
X154606097Y-150815832D01*
X154593521Y-150774994D01*
X154582871Y-150733356D01*
X154574196Y-150690969D01*
X154567547Y-150647884D01*
X154562976Y-150604151D01*
X154560533Y-150559819D01*
X154560292Y-150548941D01*
X154560168Y-150535858D01*
X154560115Y-150497986D01*
X155189868Y-150497986D01*
X155189889Y-150519296D01*
X155190036Y-150535851D01*
X155190197Y-150542741D01*
X155190436Y-150548918D01*
X155190770Y-150554540D01*
X155191215Y-150559766D01*
X155192710Y-150572011D01*
X155194732Y-150584084D01*
X155197271Y-150595974D01*
X155200313Y-150607667D01*
X155203848Y-150619153D01*
X155207863Y-150630420D01*
X155212346Y-150641456D01*
X155217287Y-150652250D01*
X155222673Y-150662790D01*
X155228492Y-150673064D01*
X155234732Y-150683061D01*
X155241383Y-150692769D01*
X155248431Y-150702176D01*
X155255866Y-150711271D01*
X155263675Y-150720042D01*
X155271847Y-150728477D01*
X155280370Y-150736565D01*
X155289232Y-150744294D01*
X155298421Y-150751653D01*
X155307926Y-150758629D01*
X155317735Y-150765212D01*
X155327836Y-150771389D01*
X155338217Y-150777149D01*
X155348866Y-150782479D01*
X155359773Y-150787370D01*
X155370924Y-150791808D01*
X155382309Y-150795782D01*
X155393915Y-150799281D01*
X155405731Y-150802293D01*
X155417744Y-150804806D01*
X155429944Y-150806809D01*
X155442318Y-150808289D01*
X155447598Y-150808726D01*
X155453277Y-150809054D01*
X155459518Y-150809289D01*
X155466479Y-150809446D01*
X155483206Y-150809591D01*
X155504743Y-150809612D01*
X155526280Y-150809591D01*
X155543007Y-150809446D01*
X155549968Y-150809289D01*
X155556208Y-150809054D01*
X155561887Y-150808726D01*
X155567166Y-150808289D01*
X155579541Y-150806809D01*
X155591740Y-150804806D01*
X155603754Y-150802293D01*
X155615570Y-150799281D01*
X155627176Y-150795782D01*
X155638561Y-150791808D01*
X155649712Y-150787370D01*
X155660619Y-150782479D01*
X155671268Y-150777149D01*
X155681650Y-150771389D01*
X155691750Y-150765212D01*
X155701559Y-150758629D01*
X155711064Y-150751653D01*
X155720254Y-150744294D01*
X155729116Y-150736565D01*
X155737638Y-150728477D01*
X155745810Y-150720042D01*
X155753620Y-150711271D01*
X155761054Y-150702176D01*
X155768103Y-150692769D01*
X155774753Y-150683061D01*
X155780994Y-150673064D01*
X155786813Y-150662790D01*
X155792199Y-150652250D01*
X155797139Y-150641456D01*
X155801623Y-150630420D01*
X155805638Y-150619153D01*
X155809173Y-150607667D01*
X155812215Y-150595974D01*
X155814754Y-150584084D01*
X155816777Y-150572011D01*
X155818272Y-150559766D01*
X155818716Y-150554540D01*
X155819050Y-150548918D01*
X155819290Y-150542741D01*
X155819450Y-150535851D01*
X155819598Y-150519296D01*
X155819619Y-150497986D01*
X155819598Y-150476664D01*
X155819450Y-150460111D01*
X155819290Y-150453223D01*
X155819050Y-150447049D01*
X155818716Y-150441430D01*
X155818272Y-150436205D01*
X155816777Y-150423957D01*
X155814754Y-150411882D01*
X155812215Y-150399991D01*
X155809173Y-150388295D01*
X155805638Y-150376808D01*
X155801623Y-150365539D01*
X155797139Y-150354501D01*
X155792199Y-150343706D01*
X155786813Y-150333165D01*
X155780994Y-150322890D01*
X155774753Y-150312892D01*
X155768103Y-150303184D01*
X155761054Y-150293776D01*
X155753620Y-150284681D01*
X155745810Y-150275909D01*
X155737638Y-150267474D01*
X155729116Y-150259386D01*
X155720254Y-150251657D01*
X155711064Y-150244299D01*
X155701559Y-150237323D01*
X155691750Y-150230741D01*
X155681650Y-150224565D01*
X155671268Y-150218806D01*
X155660619Y-150213477D01*
X155649712Y-150208588D01*
X155638561Y-150204151D01*
X155627176Y-150200178D01*
X155615570Y-150196681D01*
X155603754Y-150193671D01*
X155591740Y-150191161D01*
X155579541Y-150189160D01*
X155567166Y-150187683D01*
X155561887Y-150187237D01*
X155556208Y-150186902D01*
X155549968Y-150186663D01*
X155543007Y-150186502D01*
X155526280Y-150186354D01*
X155504743Y-150186333D01*
X155483206Y-150186354D01*
X155466479Y-150186502D01*
X155459518Y-150186663D01*
X155453277Y-150186902D01*
X155447598Y-150187237D01*
X155442318Y-150187683D01*
X155429944Y-150189160D01*
X155417744Y-150191161D01*
X155405731Y-150193671D01*
X155393915Y-150196681D01*
X155382309Y-150200178D01*
X155370924Y-150204151D01*
X155359773Y-150208588D01*
X155348866Y-150213477D01*
X155338217Y-150218806D01*
X155327836Y-150224565D01*
X155317735Y-150230741D01*
X155307926Y-150237323D01*
X155298421Y-150244299D01*
X155289232Y-150251657D01*
X155280370Y-150259386D01*
X155271847Y-150267474D01*
X155263675Y-150275909D01*
X155255866Y-150284681D01*
X155248431Y-150293776D01*
X155241383Y-150303184D01*
X155234732Y-150312892D01*
X155228492Y-150322890D01*
X155222673Y-150333165D01*
X155217287Y-150343706D01*
X155212346Y-150354501D01*
X155207863Y-150365539D01*
X155203848Y-150376808D01*
X155200313Y-150388295D01*
X155197271Y-150399991D01*
X155194732Y-150411882D01*
X155192710Y-150423957D01*
X155191215Y-150436205D01*
X155190770Y-150441430D01*
X155190436Y-150447049D01*
X155190197Y-150453223D01*
X155190036Y-150460111D01*
X155189889Y-150476664D01*
X155189868Y-150497986D01*
X154560115Y-150497986D01*
X154560168Y-150460114D01*
X154560292Y-150447031D01*
X154560533Y-150436153D01*
X154562976Y-150391821D01*
X154567547Y-150348087D01*
X154574196Y-150305002D01*
X154582871Y-150262615D01*
X154593521Y-150220976D01*
X154606097Y-150180137D01*
X154620546Y-150140146D01*
X154636819Y-150101056D01*
X154654865Y-150062915D01*
X154674631Y-150025774D01*
X154696069Y-149989684D01*
X154719127Y-149954694D01*
X154743754Y-149920855D01*
X154769900Y-149888218D01*
X154797514Y-149856832D01*
X154826544Y-149826748D01*
X154856940Y-149798015D01*
X154888652Y-149770686D01*
X154921628Y-149744809D01*
X154955818Y-149720435D01*
X154991171Y-149697614D01*
X155027636Y-149676396D01*
X155065162Y-149656833D01*
X155103698Y-149638973D01*
X155143195Y-149622868D01*
X155183600Y-149608567D01*
X155224864Y-149596122D01*
X155266935Y-149585581D01*
X155309762Y-149576996D01*
X155353295Y-149570417D01*
X155397483Y-149565894D01*
X155442275Y-149563477D01*
X155453264Y-149563233D01*
X155466480Y-149563107D01*
X155504743Y-149563054D01*
X155530982Y-149563107D01*
X155530982Y-149563054D01*
X156186974Y-149563054D01*
X156251582Y-149563117D01*
G37*
D11*
%TO.C,J5*%
X75122407Y-116047088D03*
D12*
X72582407Y-116047088D03*
D11*
X70042407Y-116047088D03*
X75122407Y-119222088D03*
X70042407Y-119222088D03*
D12*
X73598407Y-121127088D03*
X71566407Y-121127088D03*
%TD*%
D13*
%TO.C,J4*%
X87030857Y-46121864D03*
X98181457Y-46121864D03*
D14*
X87030857Y-50021864D03*
X98181457Y-50021864D03*
%TD*%
D15*
%TO.C,J6*%
X103297091Y-48105242D03*
X103297091Y-50645242D03*
X103297091Y-53185242D03*
X103297091Y-55725242D03*
D16*
X103297091Y-58265242D03*
%TD*%
D17*
%TO.C,H9*%
X63358571Y-127485038D03*
%TD*%
%TO.C,H8*%
X88224560Y-113123682D03*
%TD*%
%TO.C,H7*%
X127384069Y-117466885D03*
%TD*%
%TO.C,H11*%
X103040059Y-62359208D03*
%TD*%
%TO.C,H10*%
X138005526Y-62382921D03*
%TD*%
%TO.C,H12*%
X75740060Y-54859208D03*
%TD*%
D18*
%TO.C,SW6*%
X80405779Y-44525064D03*
X80405779Y-47275064D03*
%TD*%
D17*
%TO.C,H5*%
X188454887Y-62339718D03*
%TD*%
%TO.C,H4*%
X153454737Y-62343393D03*
%TD*%
%TO.C,H3*%
X228101737Y-127445393D03*
%TD*%
D18*
%TO.C,SW3*%
X211071540Y-44512613D03*
X211071540Y-47262613D03*
%TD*%
D17*
%TO.C,H1*%
X164110878Y-117447396D03*
%TD*%
%TO.C,H2*%
X203235748Y-113084037D03*
%TD*%
%TO.C,H6*%
X215754887Y-54839720D03*
%TD*%
D15*
%TO.C,J3*%
X188163206Y-58285732D03*
X188163206Y-55745732D03*
X188163206Y-53205732D03*
X188163206Y-50665732D03*
D16*
X188163206Y-48125732D03*
%TD*%
D13*
%TO.C,J1*%
X193278840Y-46088613D03*
X204429440Y-46088613D03*
D14*
X193278840Y-49988613D03*
X204429440Y-49988613D03*
%TD*%
D11*
%TO.C,J2*%
X216290737Y-102582416D03*
D12*
X218830737Y-102582416D03*
D11*
X221370737Y-102582416D03*
X216290737Y-99407416D03*
X221370737Y-99407416D03*
D12*
X217814737Y-97502416D03*
X219846737Y-97502416D03*
%TD*%
D19*
%TO.C,REF\u002A\u002A*%
X152004796Y-68236247D03*
X152004796Y-68976247D03*
X152004796Y-69716247D03*
X152004796Y-70456247D03*
X152004796Y-71196247D03*
X152004796Y-71936247D03*
%TD*%
%TO.C,REF\u002A\u002A*%
X139455457Y-71936212D03*
X139455457Y-71196212D03*
X139455457Y-70456212D03*
X139455457Y-69716212D03*
X139455457Y-68976212D03*
X139455457Y-68236212D03*
%TD*%
%TO.C,REF\u002A\u002A*%
X152004796Y-134587527D03*
X152004796Y-135327527D03*
X152004796Y-136067527D03*
X152004796Y-136807527D03*
X152004796Y-137547527D03*
X152004796Y-138287527D03*
%TD*%
%TO.C,REF\u002A\u002A*%
X139455444Y-138295876D03*
X139455444Y-137555876D03*
X139455444Y-136815876D03*
X139455444Y-136075876D03*
X139455444Y-135335876D03*
X139455444Y-134595876D03*
%TD*%
M02*
