M48
; DRILL file {KiCad 9.0.4} date 2025-10-15T20:25:43+0200
; FORMAT={-:-/ absolute / inch / decimal}
; #@! TF.CreationDate,2025-10-15T20:25:43+02:00
; #@! TF.GenerationSoftware,Kicad,Pcbnew,9.0.4
; #@! TF.FileFunction,NonPlated,1,6,NPTH
FMAT,2
INCH
; #@! TA.AperFunction,NonPlated,NPTH,ComponentDrill
T1C0.0197
; #@! TA.AperFunction,NonPlated,NPTH,ComponentDrill
T2C0.0295
; #@! TA.AperFunction,NonPlated,NPTH,ComponentDrill
T3C0.0390
; #@! TA.AperFunction,NonPlated,NPTH,ComponentDrill
T4C0.0935
; #@! TA.AperFunction,NonPlated,NPTH,ComponentDrill
T5C0.1693
%
G90
G05
T1
X5.4904Y-5.2991
X5.4904Y-5.3282
X5.4904Y-5.3573
X5.4904Y-5.3865
X5.4904Y-5.4156
X5.4904Y-5.4447
X5.4904Y-2.6865
X5.4904Y-2.7156
X5.4904Y-2.7447
X5.4904Y-2.7739
X5.4904Y-2.803
X5.4904Y-2.8321
X5.9844Y-2.6865
X5.9844Y-2.7156
X5.9844Y-2.7447
X5.9844Y-2.7739
X5.9844Y-2.803
X5.9844Y-2.8321
X5.9844Y-5.2987
X5.9844Y-5.3279
X5.9844Y-5.357
X5.9844Y-5.3861
X5.9844Y-5.4153
X5.9844Y-5.4444
T2
X3.1656Y-1.753
X3.1656Y-1.8612
X8.3099Y-1.7525
X8.3099Y-1.8607
T3
X2.8176Y-4.7688
X2.8576Y-4.5688
X2.8976Y-4.7688
X8.5754Y-3.8387
X8.6154Y-4.0387
X8.6554Y-3.8387
T4
X2.7576Y-4.5688
X2.7576Y-4.6938
X2.9576Y-4.5688
X2.9576Y-4.6938
X8.5154Y-3.9137
X8.5154Y-4.0387
X8.7154Y-3.9137
X8.7154Y-4.0387
T5
X2.4944Y-5.0191
X2.9819Y-2.1598
X3.4734Y-4.4537
X4.0567Y-2.4551
X5.0151Y-4.6247
X5.4333Y-2.456
X6.0415Y-2.4545
X6.4611Y-4.6239
X7.4195Y-2.4543
X8.0014Y-4.4521
X8.4943Y-2.159
X8.9804Y-5.0175
M30
